<?xml version="1.0" encoding="UTF-8"?>
<!DOCTYPE svg PUBLIC "-//W3C//DTD SVG 1.1//EN" "http://www.w3.org/Graphics/SVG/1.1/DTD/svg11.dtd">
<!-- Creator: CorelDRAW -->
<?xml-stylesheet href="C-Blog.css" type="text/css"?>
<svg xmlns="http://www.w3.org/2000/svg" xml:space="preserve" width="5in" height="5in" version="1.1" style="shape-rendering:geometricPrecision; text-rendering:geometricPrecision; image-rendering:optimizeQuality; fill-rule:evenodd; clip-rule:evenodd"
viewBox="0 0 5000 5000"
 xmlns:xlink="http://www.w3.org/1999/xlink"
 xmlns:xodm="http://www.corel.com/coreldraw/odm/2003">
 <g id="Layer_x0020_1">
  <metadata id="CorelCorpID_0Corel-Layer"/>
  <g id="_2306660851376">
   <path class="fil0" d="M2768.81 2879.69c-51.65,12.19 -89.6,124.52 -318.18,181.96 -374.52,94.13 -829.58,-224.56 -703.61,-732.53 86.75,-349.8 494.41,-547.71 864.36,-355.8 15.82,8.2 25.68,13.38 40.69,24.17 105.02,75.49 73.59,53.17 251.36,-111.5 26.02,-24.11 51.85,-34.99 52.64,-80.39 -286.78,-242.09 -723.98,-299.53 -1064.71,-135.75 -103.53,49.76 -152.65,90.69 -230.19,164.72 -15.57,14.86 -37.02,32.51 -51.89,48.48 -11.19,12.01 -30.06,39.13 -43.63,57.15 -235.13,312.32 -232.22,728.26 -32.94,1054.01 42.3,69.14 73.01,82.94 70.39,125.17 -3.22,52.23 -60.37,321.6 -33.03,347.47 22.81,21.57 115.04,-29.09 140.43,-40.05 48.07,-20.73 94.6,-39.91 141.48,-59.72 136.11,-57.5 52.37,-14.13 308.83,33.27 236.59,43.73 483.39,-22.9 650.26,-128.74l83.36 -60.13c139.64,-115.8 121.33,-94.75 -20.59,-237.93 -22.41,-22.61 -74.69,-86.96 -105.05,-93.86z"/>
   <path class="fil1" d="M2462.09 2757.23l252.35 -292.84c27.86,-41.05 32.96,-89.3 98.49,-61.98 6.91,27.99 7.91,40.11 -11.46,63.07 -20.85,24.72 -34.34,16.61 -64,29.46 -20.87,9.04 -68.54,62.46 -90.76,88.57 -32.79,38.54 -149.3,151.99 -184.63,173.71zm-36.65 6.48c12.37,15.17 18.33,21.63 33.19,34.48l196.95 -105.45c69.87,-33.46 136.97,-57.49 216.48,-84.58 238.17,-81.16 -0.62,-0.64 267.83,-342.43 23.41,-29.8 48.12,-47.24 72.87,-77.67 63.76,-78.38 224.16,-232.74 290.61,-311.85 12.43,-14.8 20.97,-24.35 33.46,-38.67 66.68,-76.49 134.41,-97.88 -1.89,-228.07 -20.14,-19.23 -57.92,-59.52 -78.72,-72.34 -44.68,-27.52 -78.69,12.86 -99.84,34.02l-459.73 451.58c-43.7,41.78 0.52,9.37 -77.59,73.14 -217.1,177.23 -161.01,15.08 -224.05,228.43 -23.71,80.24 -44.83,148.76 -74.01,226.85 -20.13,53.87 -89.19,180.15 -95.56,212.54z"/>
   <path class="fil1" d="M2150.35 2711.35c42.13,-14.39 100.35,-78.12 130.32,-106.5 35.78,-33.89 84.07,-76.81 101.58,-142.63 31.67,-119.05 -70.59,-279.58 -224.31,-132.33 -141.79,-168.65 -401.34,68.81 -72.17,327l64.59 54.46z"/>
  </g>
 </g>
</svg>
